<svg width="79" height="79" viewBox="0 0 79 79" fill="none" xmlns="http://www.w3.org/2000/svg">
<ellipse cx="39.2331" cy="39.5" rx="39.2331" ry="39.5" fill="white"/>
<ellipse cx="39.2331" cy="39.5" rx="35.4966" ry="35.2297" fill="#85429F"/>
<path d="M24.8297 16.9V61H43.4147C49.8407 61 59.6687 58.921 59.6687 48.904C59.6687 41.722 54.5027 38.824 50.8487 37.816C54.3137 36.808 57.9047 33.658 57.9047 28.051C57.9047 20.617 51.9197 16.9 42.9107 16.9H24.8297ZM54.3137 48.337C54.3137 55.582 47.8877 55.96 42.3437 55.96H30.1217V40.714H43.7927C48.0137 40.714 54.3137 41.47 54.3137 48.337ZM52.5497 28.807C52.5497 33.847 48.5177 35.674 43.9187 35.674H30.1217V21.94H42.4697C48.7067 21.94 52.5497 23.578 52.5497 28.807Z" fill="white"/>
</svg>
